# xmcd
# Track frame offsets:
# 225
# 20127
# 38726
# 58739
# 76371
# 96524
# 110233
# 128727
# 145249
# 162343
#
# Disc length: 2390 seconds
# Revision: 0
# Processed by: cddbd v1.4PL0 Copyright (c) Steve Scherf et al.
# Submitted via: VisiTrax 2.9.5.180 - For more info visit www.synapsa.com
#
DISCID=8f09530a
DTITLE=Lorena Prater - Dreamin'
DYEAR=1998
DGENRE=
TTITLE0=Dreamin'
TTITLE1=Wish it away
TTITLE2=Sheltered by our love
TTITLE3=Blue Bayou
TTITLE4=Simply from above
TTITLE5=Cleopatra, queen of Denial
TTITLE6=Livin' on the run
TTITLE7=I wonder
TTITLE8=Jesse
TTITLE9=The resting place
EXTD=
EXTT0=
EXTT1=
EXTT2=
EXTT3=
EXTT4=
EXTT5=
EXTT6=
EXTT7=
EXTT8=
EXTT9=
PLAYORDER=
